<svg xmlns="http://www.w3.org/2000/svg" viewBox="0 0 24 24" fill="currentColor">
  <path d="M12 .5C5.73.5.5 5.73.5 12c0 5.08 3.29 9.39 7.86 10.91.58.11.79-.25.79-.56v-2.02c-3.2.7-3.87-1.54-3.87-1.54-.52-1.32-1.27-1.67-1.27-1.67-1.04-.71.08-.7.08-.7 1.15.08 1.75 1.18 1.75 1.18 1.02 1.74 2.68 1.24 3.33.95.1-.74.4-1.24.72-1.52-2.55-.29-5.23-1.27-5.23-5.66 0-1.25.45-2.27 1.18-3.07-.12-.29-.51-1.47.11-3.06 0 0 .96-.31 3.14 1.17a10.9 10.9 0 012.86-.38c.97 0 1.95.13 2.86.38 2.18-1.48 3.14-1.17 3.14-1.17.62 1.59.23 2.77.11 3.06.73.8 1.18 1.82 1.18 3.07 0 4.4-2.69 5.37-5.25 5.66.41.35.77 1.05.77 2.12v3.14c0 .31.21.68.8.56A11.5 11.5 0 0023.5 12C23.5 5.73 18.27.5 12 .5z"/>
</svg>